HIERARCHY
ROOT Hips
{
	OFFSET 0.000000 89.005402 0.000000
	CHANNELS 6 Xposition Yposition Zposition Xrotation Yrotation Zrotation
	JOINT Spine
	{
		OFFSET 0.116900 10.681000 0.373400
		CHANNELS 3 Xrotation Yrotation Zrotation
		JOINT Spine1
		{
			OFFSET 0.000000 13.840401 0.053500
			CHANNELS 3 Xrotation Yrotation Zrotation
			JOINT Spine2
			{
				OFFSET 0.000000 14.712700 -0.366200
				CHANNELS 3 Xrotation Yrotation Zrotation
				JOINT Neck
				{
					OFFSET 0.000000 35.415497 -3.314200
					CHANNELS 3 Xrotation Yrotation Zrotation
					JOINT Head
					{
						OFFSET 0.000000 16.899200 1.218300
						CHANNELS 3 Xrotation Yrotation Zrotation
						JOINT HeadTop_End
						{
							OFFSET 0.000000 22.206207 2.192500
							CHANNELS 3 Xrotation Yrotation Zrotation
							End Site
							{
								OFFSET 0.000000 22.314178 0.000000
							}
						}
					}
				}
				JOINT LeftShoulder
				{
					OFFSET 12.896400 26.716293 -4.548400
					CHANNELS 3 Xrotation Yrotation Zrotation
					JOINT LeftArm
					{
						OFFSET 19.027000 -4.857010 -1.718400
						CHANNELS 3 Xrotation Yrotation Zrotation
						JOINT LeftForeArm
						{
							OFFSET 24.179897 0.000000 0.000000
							CHANNELS 3 Xrotation Yrotation Zrotation
							JOINT LeftHand
							{
								OFFSET 27.156403 0.000000 0.000000
								CHANNELS 3 Xrotation Yrotation Zrotation
								JOINT LeftHandIndex1
								{
									OFFSET 16.441200 0.000000 0.000000
									CHANNELS 3 Xrotation Yrotation Zrotation
									JOINT LeftHandIndex2
									{
										OFFSET 4.821899 0.000000 0.000000
										CHANNELS 3 Xrotation Yrotation Zrotation
										JOINT LeftHandIndex3
										{
											OFFSET 6.386497 0.000000 0.000000
											CHANNELS 3 Xrotation Yrotation Zrotation
											JOINT LeftHandIndex4
											{
												OFFSET 5.188988 0.000000 0.000000
												CHANNELS 3 Xrotation Yrotation Zrotation
												End Site
												{
													OFFSET -0.178703 5.185913 0.000177
												}
											}
										}
									}
								}
								JOINT LeftHandThumb1
								{
									OFFSET 6.534897 -5.032593 5.900300
									CHANNELS 3 Xrotation Yrotation Zrotation
									JOINT LeftHandThumb2
									{
										OFFSET 3.818176 -2.204422 2.204423
										CHANNELS 3 Xrotation Yrotation Zrotation
										JOINT LeftHandThumb3
										{
											OFFSET 3.252098 -1.877594 1.877601
											CHANNELS 3 Xrotation Yrotation Zrotation
											JOINT LeftHandThumb4
											{
												OFFSET 5.251778 -3.032120 3.032117
												CHANNELS 3 Xrotation Yrotation Zrotation
												End Site
												{
													OFFSET 0.000023 6.780014 0.000000
												}
											}
										}
									}
								}
							}
						}
					}
				}
				JOINT RightShoulder
				{
					OFFSET -12.896300 26.716293 -4.548400
					CHANNELS 3 Xrotation Yrotation Zrotation
					JOINT RightArm
					{
						OFFSET -19.027000 -4.857010 -1.718400
						CHANNELS 3 Xrotation Yrotation Zrotation
						JOINT RightForeArm
						{
							OFFSET -24.179897 0.000000 0.000000
							CHANNELS 3 Xrotation Yrotation Zrotation
							JOINT RightHand
							{
								OFFSET -27.156403 0.000000 0.000000
								CHANNELS 3 Xrotation Yrotation Zrotation
								JOINT RightHandThumb1
								{
									OFFSET -6.591202 -4.852203 5.988100
									CHANNELS 3 Xrotation Yrotation Zrotation
									JOINT RightHandThumb2
									{
										OFFSET -3.818176 -2.204422 2.204423
										CHANNELS 3 Xrotation Yrotation Zrotation
										JOINT RightHandThumb3
										{
											OFFSET -3.252098 -1.877594 1.877601
											CHANNELS 3 Xrotation Yrotation Zrotation
											JOINT RightHandThumb4
											{
												OFFSET -5.251778 -3.032120 3.032117
												CHANNELS 3 Xrotation Yrotation Zrotation
												End Site
												{
													OFFSET -0.000023 6.780014 0.000000
												}
											}
										}
									}
								}
								JOINT RightHandIndex1
								{
									OFFSET -16.029404 0.000000 0.000000
									CHANNELS 3 Xrotation Yrotation Zrotation
									JOINT RightHandIndex2
									{
										OFFSET -5.213303 0.000000 0.000000
										CHANNELS 3 Xrotation Yrotation Zrotation
										JOINT RightHandIndex3
										{
											OFFSET -6.386528 0.000000 0.000000
											CHANNELS 3 Xrotation Yrotation Zrotation
											JOINT RightHandIndex4
											{
												OFFSET -5.189026 0.000000 0.000000
												CHANNELS 3 Xrotation Yrotation Zrotation
												End Site
												{
													OFFSET 0.236702 5.183624 0.001972
												}
											}
										}
									}
								}
							}
						}
					}
				}
			}
		}
	}
	JOINT LeftUpLeg
	{
		OFFSET 14.073000 -7.904099 -1.463000
		CHANNELS 3 Xrotation Yrotation Zrotation
		JOINT LeftLeg
		{
			OFFSET -0.109806 -34.073280 4.093200
			CHANNELS 3 Xrotation Yrotation Zrotation
			JOINT LeftFoot
			{
				OFFSET 0.109806 -29.899420 -6.319000
				CHANNELS 3 Xrotation Yrotation Zrotation
				JOINT LeftToeBase
				{
					OFFSET 1.551100 -14.988700 20.535801
					CHANNELS 3 Xrotation Yrotation Zrotation
					JOINT LeftToe_End
					{
						OFFSET 0.221200 0.570800 13.248301
						CHANNELS 3 Xrotation Yrotation Zrotation
						End Site
						{
							OFFSET 0.000000 13.262435 0.000000
						}
					}
				}
			}
		}
	}
	JOINT RightUpLeg
	{
		OFFSET -13.839300 -7.904099 -1.463000
		CHANNELS 3 Xrotation Yrotation Zrotation
		JOINT RightLeg
		{
			OFFSET 0.109694 -34.073219 4.093300
			CHANNELS 3 Xrotation Yrotation Zrotation
			JOINT RightFoot
			{
				OFFSET -0.109694 -29.899384 -6.319200
				CHANNELS 3 Xrotation Yrotation Zrotation
				JOINT RightToeBase
				{
					OFFSET -1.551100 -14.988700 20.535801
					CHANNELS 3 Xrotation Yrotation Zrotation
					JOINT RightToe_End
					{
						OFFSET -0.221200 0.570900 13.248299
						CHANNELS 3 Xrotation Yrotation Zrotation
						End Site
						{
							OFFSET 0.000000 13.262440 0.000000
						}
					}
				}
			}
		}
	}
}
MOTION
Frames: 7
Frame Time: 0.033333
1.264990 62.626373 1.068161 -0.729436 27.008950 -4.898144 11.838232 -3.671903 1.116065 23.626601 -7.738533 0.968854 23.626591 -7.738529 0.968856 -6.739120 20.049470 -10.343703 -24.264761 43.274374 6.510957 -0.000001 0.000002 0.000001 3.177548 -4.866871 -33.196475 -19.720911 -13.368868 6.485575 25.059372 -24.084249 -9.164055 13.095422 -12.891130 7.944973 0.809298 -5.866193 -5.023376 -0.927991 -0.210267 -27.230795 0.000002 -0.000007 -0.000003 -0.000003 -0.000001 0.000001 -7.851758 0.740101 7.792220 4.546527 -1.761791 -0.406513 0.000015 0.000005 -0.000019 0.000002 0.000002 -0.000001 2.170922 -3.246151 7.232378 -6.687196 -12.328864 18.797915 42.738420 48.459526 -0.863676 32.629528 8.563277 -12.220341 5.167907 9.632354 -7.147974 7.591085 -13.525749 -4.632195 0.000011 -0.000001 0.000007 -0.000000 -0.000000 0.000002 -1.556265 5.160238 10.897679 -1.073581 -0.197663 29.828628 -0.000001 0.000013 0.000003 -0.000001 -0.000002 0.000001 -53.659694 8.632521 17.454284 115.785831 6.828517 -0.345027 -9.533252 -1.851296 13.018542 -45.670255 19.081404 -13.135639 0.000000 0.000000 -0.000000 -60.805848 0.733359 14.085884 82.855802 -30.518539 3.249316 -19.226448 -1.863023 7.058464 -0.240120 -8.250984 0.327003 -0.000000 0.000000 0.000000 
4.264966 62.904915 1.125215 -0.658740 25.873728 -3.301056 11.937275 -3.562296 0.553437 23.808801 -7.714666 0.040815 23.808784 -7.714670 0.040817 -7.741085 19.916717 -10.029207 -24.634909 42.417213 6.789470 0.000000 0.000001 -0.000002 3.132598 -5.480718 -33.550118 -19.985583 -13.676831 7.256985 24.658660 -22.552958 -8.888737 13.098980 -12.807379 7.655157 0.772808 -5.833671 -5.471542 -0.941182 -0.240501 -27.528406 0.000003 -0.000008 -0.000004 -0.000001 -0.000000 0.000000 -8.223370 0.760436 7.994455 4.566982 -1.675133 -0.540728 0.000015 0.000006 -0.000018 0.000001 -0.000001 0.000000 2.241448 -4.201307 7.798001 -7.393205 -11.043010 20.828616 41.276380 45.548155 0.136497 33.225018 8.396923 -12.651086 5.390901 9.712111 -6.952993 7.406799 -13.574274 -4.769893 0.000009 0.000001 0.000007 -0.000003 0.000003 -0.000001 -1.520550 5.034445 10.754691 -1.075545 -0.188230 29.935937 -0.000001 0.000010 0.000001 0.000001 -0.000000 0.000001 -56.845410 3.576105 21.022084 114.875394 11.620188 0.652040 -17.371261 -3.265940 16.319028 -18.781359 19.013384 -26.009109 -0.000000 0.000003 -0.000000 -60.286958 3.390466 12.080898 84.221410 -28.590330 1.452777 -20.628495 -2.678744 9.769316 0.117966 -8.622282 1.592960 -0.000000 -0.000000 -0.000000 
7.249358 63.451324 1.230983 -0.589224 24.394961 -1.611801 12.034698 -3.486001 -0.177881 23.992993 -7.639512 -1.048062 23.992983 -7.639509 -1.048074 -8.861557 19.888080 -9.736179 -25.383191 41.886244 7.462141 -0.000000 -0.000001 -0.000000 3.141570 -5.727489 -33.929330 -20.241901 -14.033744 7.823782 24.101216 -21.166782 -8.688276 12.778633 -12.665599 7.310314 0.743601 -5.848427 -6.176727 -0.969969 -0.293738 -28.067621 0.000003 -0.000006 -0.000005 0.000005 0.000000 -0.000000 -8.605302 0.903337 8.218939 4.913706 -1.064335 -0.585071 0.000015 0.000010 -0.000018 0.000003 0.000001 -0.000002 2.321379 -5.057965 8.463654 -7.923928 -9.819908 22.541026 40.056385 43.115733 1.118131 33.288471 7.991531 -12.860526 5.515123 9.752095 -6.835043 7.312435 -13.750618 -4.870816 0.000008 -0.000000 0.000008 -0.000001 0.000001 -0.000001 -1.504402 4.892000 10.917507 -1.079573 -0.168337 30.167276 -0.000001 0.000012 0.000005 0.000003 0.000000 -0.000001 -57.960330 -0.560827 24.114003 108.008220 11.376809 1.161437 -20.122152 -4.031484 17.713599 -10.164556 14.042394 -17.948293 -0.000001 -0.000001 -0.000001 -59.202557 6.121983 9.778282 84.767237 -26.169597 -0.026158 -21.948190 -3.322055 11.620780 0.305094 -9.200586 3.440600 0.000000 0.000000 0.000000 
10.292171 63.709312 1.411709 -0.432374 22.650864 -0.051926 11.961542 -3.390249 -0.868961 23.843997 -7.420896 -2.006079 23.843994 -7.420896 -2.006080 -9.383861 19.909540 -9.916676 -25.783901 41.670120 7.816231 -0.000001 0.000000 -0.000000 3.155973 -5.800427 -34.156482 -20.385606 -14.266870 8.139605 23.576681 -19.796509 -8.686468 12.278491 -12.504571 6.996080 0.781261 -5.907855 -6.878509 -1.010696 -0.367077 -28.815878 -0.000001 -0.000009 -0.000008 -0.000001 -0.000001 -0.000000 -9.091011 1.168071 8.542315 5.435537 -0.150200 -0.613260 0.000015 0.000008 -0.000016 -0.000000 0.000000 0.000000 2.384812 -5.738234 8.850359 -8.008778 -9.097805 23.465728 39.399010 41.855044 1.811761 32.793019 7.404921 -12.932749 5.483589 9.653845 -6.856883 7.434854 -14.046723 -4.893093 0.000008 -0.000002 0.000007 -0.000002 0.000004 -0.000001 -1.496108 4.732162 11.256487 -1.088769 -0.144656 30.462794 -0.000001 0.000013 -0.000002 -0.000001 -0.000002 -0.000004 -57.901132 -3.152713 26.231502 98.446249 9.701792 1.900486 -19.677379 -4.242026 18.424521 -4.586258 9.294328 -10.906273 0.000001 0.000002 0.000001 -58.365701 8.590524 7.167868 85.726838 -23.553136 -1.159384 -23.559245 -3.757102 12.900592 1.106013 -9.489269 3.547123 -0.000000 -0.000000 0.000000 
13.318892 63.884125 1.582709 -0.369766 20.835651 1.147926 11.887493 -3.181501 -1.472114 23.698098 -6.920796 -2.827489 23.698079 -6.920795 -2.827491 -9.304922 19.878022 -10.551940 -25.769260 41.315879 7.604013 -0.000002 0.000001 0.000001 3.119309 -6.204271 -34.401067 -20.382372 -14.293797 8.309953 23.408578 -18.325111 -8.811940 12.050946 -12.303270 6.708481 0.791644 -5.990586 -7.953183 -1.089197 -0.493829 -30.045818 0.000003 -0.000007 -0.000006 0.000005 0.000000 -0.000002 -9.463506 1.571405 8.862772 6.069196 1.021815 -0.582463 0.000012 0.000007 -0.000022 0.000001 -0.000001 -0.000002 2.402797 -6.159650 8.857265 -7.784989 -8.918307 23.804504 39.041173 41.302338 2.236787 32.105994 6.961800 -12.847536 5.340734 9.440323 -6.988317 7.753056 -14.426852 -4.856160 0.000008 0.000002 0.000006 0.000000 -0.000006 0.000000 -1.490430 4.585049 11.625200 -1.103821 -0.120502 30.786186 -0.000003 0.000007 -0.000000 0.000001 0.000002 0.000001 -56.711167 -4.527866 27.592649 88.507401 7.818119 3.140248 -18.669190 -4.066144 18.130099 -0.800411 5.576643 -4.515282 -0.000000 0.000000 0.000002 -57.386075 10.514689 4.254395 86.532725 -20.792561 -1.858263 -25.134630 -4.008329 13.416489 1.517179 -9.478398 3.303272 0.000000 0.000000 -0.000000 
16.387005 63.865166 1.680192 -0.615792 19.125592 1.978192 11.885712 -2.935233 -1.924929 23.701305 -6.320740 -3.412178 23.701310 -6.320742 -3.412182 -8.977835 19.842982 -11.410505 -25.567713 40.903281 7.120543 -0.000000 0.000001 -0.000002 3.072125 -6.682536 -34.683182 -20.360314 -14.197163 8.375143 23.621492 -16.908673 -8.848613 12.354324 -12.141948 6.272888 0.610088 -6.076859 -10.074828 -1.269192 -0.699387 -32.240822 0.000005 -0.000010 -0.000004 0.000000 0.000001 -0.000001 -9.460527 2.115679 9.017393 6.804766 2.415625 -0.474471 0.000014 0.000004 -0.000021 0.000003 0.000000 0.000001 2.381557 -6.217909 8.649766 -7.516378 -9.019617 24.038006 38.599930 40.731703 2.575830 31.503715 6.877695 -12.525425 5.117203 9.132032 -7.203847 8.273727 -14.887324 -4.758783 0.000009 -0.000002 0.000009 -0.000000 0.000002 -0.000000 -1.489518 4.432207 12.083862 -1.124925 -0.087646 31.230565 -0.000002 0.000006 0.000003 0.000002 -0.000002 -0.000000 -54.922261 -5.223954 28.326131 80.839660 5.969710 4.711771 -18.814483 -3.810471 17.060460 -0.475902 2.366007 -1.782902 0.000003 0.000001 -0.000003 -56.232845 11.771657 0.878387 87.420780 -17.735223 -2.078481 -26.716382 -4.076805 13.200198 1.687371 -9.252489 3.006101 0.000000 0.000000 -0.000000 
19.622684 63.519615 1.731864 -0.838526 17.341048 2.208069 11.828759 -2.626005 -2.227296 23.591601 -5.635879 -3.849517 23.591596 -5.635882 -3.849516 -8.504383 19.866083 -12.386466 -25.323457 40.651514 6.711866 -0.000000 -0.000002 -0.000000 3.111957 -6.794402 -35.230471 -20.389337 -13.878961 8.231436 23.923255 -15.959312 -8.692153 12.953068 -12.229099 5.621140 0.310642 -6.181047 -12.808426 -1.546401 -0.961380 -35.239470 0.000001 -0.000006 -0.000005 0.000003 0.000001 -0.000002 -9.291759 2.614786 9.067293 7.590212 3.985762 -0.373985 0.000014 0.000007 -0.000018 -0.000000 -0.000000 0.000001 2.304922 -6.119108 7.916769 -7.204848 -9.195081 24.250202 38.244995 40.309734 2.804820 30.946436 6.917567 -12.051287 4.837076 8.743487 -7.467395 8.996561 -15.483737 -4.574233 0.000009 0.000005 0.000006 -0.000000 -0.000001 0.000001 -1.562306 4.260177 13.043180 -1.157660 -0.037117 31.876035 -0.000001 0.000009 -0.000001 -0.000005 -0.000000 -0.000003 -53.767130 -5.371650 28.946188 76.158979 2.267911 5.672440 -17.095094 -3.404030 16.551652 -0.028212 0.362624 0.036803 0.000002 -0.000002 -0.000002 -55.527942 12.600001 -2.547296 88.519245 -14.453114 -1.939103 -28.130023 -3.999619 12.409236 1.630915 -8.960416 2.799640 -0.000000 -0.000000 0.000000 
